HIERARCHY
ROOT Hips
{
    OFFSET 0.000000 0.000000 0.000000
    CHANNELS 6 Xposition Yposition Zposition Zrotation Yrotation Xrotation
    JOINT Chest
    {
        OFFSET 0.000000 1.634758 -0.000000
        CHANNELS 3 Zrotation Yrotation Xrotation
        JOINT Chest2
        {
            OFFSET 0.000000 2.197341 0.000000
            CHANNELS 3 Zrotation Yrotation Xrotation
            JOINT Neck
            {
                OFFSET 0.000000 0.961544 0.000000
                CHANNELS 3 Zrotation Yrotation Xrotation
                JOINT Head
                {
                    OFFSET 0.000000 0.632542 -0.032565
                    CHANNELS 3 Zrotation Yrotation Xrotation
                    End Site
                    {
                        OFFSET -0.000001 0.439502 2.922845
                    }
                }
            }
            JOINT LeftCollar
            {
                OFFSET 0.167536 0.778237 -0.168280
                CHANNELS 3 Zrotation Yrotation Xrotation
                JOINT LeftShoulder
                {
                    OFFSET 0.831514 -0.002900 0.006458
                    CHANNELS 3 Zrotation Yrotation Xrotation
                    JOINT LeftElbow
                    {
                        OFFSET 2.272872 -0.026639 0.059314
                        CHANNELS 3 Zrotation Yrotation Xrotation
                        JOINT LeftWrist
                        {
                            OFFSET 2.081982 -0.024402 0.054333
                            CHANNELS 3 Zrotation Yrotation Xrotation
                            JOINT LeftHandThumb1
                            {
                                OFFSET 0.218903 -0.128645 0.283837
                                CHANNELS 3 Zrotation Yrotation Xrotation
                                JOINT LeftHandThumb2
                                {
                                    OFFSET 0.137157 -0.025101 0.077902
                                    CHANNELS 3 Zrotation Yrotation Xrotation
                                    JOINT LeftHandThumb3
                                    {
                                        OFFSET 0.059589 -0.105436 0.137374
                                        CHANNELS 3 Zrotation Yrotation Xrotation
                                        End Site
                                        {
                                            OFFSET 0.063751 -0.149808 0.212908
                                        }
                                    }
                                }
                            }
                            JOINT LeftHandFore1
                            {
                                OFFSET 0.767340 -0.016076 0.196678
                                CHANNELS 3 Zrotation Yrotation Xrotation
                                JOINT LeftHandFore2
                                {
                                    OFFSET 0.216562 0.006316 0.007510
                                    CHANNELS 3 Zrotation Yrotation Xrotation
                                    JOINT LeftHandFore3
                                    {
                                        OFFSET 0.129395 -0.000267 0.004430
                                        CHANNELS 3 Zrotation Yrotation Xrotation
                                        End Site
                                        {
                                            OFFSET 0.193242 0.004292 0.002447
                                        }
                                    }
                                }
                            }
                            JOINT LeftHandMiddle1
                            {
                                OFFSET 0.709887 -0.008320 0.018526
                                CHANNELS 3 Zrotation Yrotation Xrotation
                                JOINT LeftHandMiddle2
                                {
                                    OFFSET 0.230689 -0.079348 -0.023463
                                    CHANNELS 3 Zrotation Yrotation Xrotation
                                    JOINT LeftHandMiddle3
                                    {
                                        OFFSET 0.143871 -0.021373 -0.015083
                                        CHANNELS 3 Zrotation Yrotation Xrotation
                                        End Site
                                        {
                                            OFFSET 0.231363 -0.039241 -0.023699
                                        }
                                    }
                                }
                            }
                            JOINT LeftHandRing1
                            {
                                OFFSET 0.743817 -0.005823 -0.153668
                                CHANNELS 3 Zrotation Yrotation Xrotation
                                JOINT LeftHandRing2
                                {
                                    OFFSET 0.299546 -0.105698 -0.154380
                                    CHANNELS 3 Zrotation Yrotation Xrotation
                                    JOINT LeftHandRing3
                                    {
                                        OFFSET 0.116524 -0.045129 -0.054691
                                        CHANNELS 3 Zrotation Yrotation Xrotation
                                        End Site
                                        {
                                            OFFSET 0.100178 -0.046059 -0.047569
                                        }
                                    }
                                }
                            }
                            JOINT LeftHandLittle1
                            {
                                OFFSET 0.689408 -0.053302 -0.308304
                                CHANNELS 3 Zrotation Yrotation Xrotation
                                JOINT LeftHandLittle2
                                {
                                    OFFSET 0.137632 -0.049071 -0.129242
                                    CHANNELS 3 Zrotation Yrotation Xrotation
                                    JOINT LeftHandLittle3
                                    {
                                        OFFSET 0.058046 -0.032332 -0.100407
                                        CHANNELS 3 Zrotation Yrotation Xrotation
                                        End Site
                                        {
                                            OFFSET 0.110804 -0.024145 -0.153062
                                        }
                                    }
                                }
                            }
                        }
                    }
                }
            }
            JOINT RightCollar
            {
                OFFSET -0.167536 0.778237 -0.168280
                CHANNELS 3 Zrotation Yrotation Xrotation
                JOINT RightShoulder
                {
                    OFFSET -0.831514 -0.002900 0.006457
                    CHANNELS 3 Zrotation Yrotation Xrotation
                    JOINT RightElbow
                    {
                        OFFSET -2.272872 -0.026639 0.059313
                        CHANNELS 3 Zrotation Yrotation Xrotation
                        JOINT RightWrist
                        {
                            OFFSET -2.081982 -0.024402 0.054331
                            CHANNELS 3 Zrotation Yrotation Xrotation
                            JOINT RightHandThumb1
                            {
                                OFFSET -0.218911 -0.128571 0.283837
                                CHANNELS 3 Zrotation Yrotation Xrotation
                                JOINT RightHandThumb2
                                {
                                    OFFSET -0.137157 -0.025101 0.077902
                                    CHANNELS 3 Zrotation Yrotation Xrotation
                                    JOINT RightHandThumb3
                                    {
                                        OFFSET -0.176483 0.048336 0.007539
                                        CHANNELS 3 Zrotation Yrotation Xrotation
                                        End Site
                                        {
                                            OFFSET -0.249942 0.095908 0.012926
                                        }
                                    }
                                }
                            }
                            JOINT RightHandFore1
                            {
                                OFFSET -0.767344 -0.015991 0.196679
                                CHANNELS 3 Zrotation Yrotation Xrotation
                                JOINT RightHandFore2
                                {
                                    OFFSET -0.216564 0.006366 0.007512
                                    CHANNELS 3 Zrotation Yrotation Xrotation
                                    JOINT RightHandFore3
                                    {
                                        OFFSET -0.129393 -0.000237 0.004431
                                        CHANNELS 3 Zrotation Yrotation Xrotation
                                        End Site
                                        {
                                            OFFSET -0.192952 0.004189 0.010907
                                        }
                                    }
                                }
                            }
                            JOINT RightHandMiddle1
                            {
                                OFFSET -0.709887 -0.008302 0.018525
                                CHANNELS 3 Zrotation Yrotation Xrotation
                                JOINT RightHandMiddle2
                                {
                                    OFFSET -0.230677 -0.079370 -0.023461
                                    CHANNELS 3 Zrotation Yrotation Xrotation
                                    JOINT RightHandMiddle3
                                    {
                                        OFFSET -0.144016 -0.021402 -0.013625
                                        CHANNELS 3 Zrotation Yrotation Xrotation
                                        End Site
                                        {
                                            OFFSET -0.231476 -0.039250 -0.022554
                                        }
                                    }
                                }
                            }
                            JOINT RightHandRing1
                            {
                                OFFSET -0.743819 -0.005785 -0.153669
                                CHANNELS 3 Zrotation Yrotation Xrotation
                                JOINT RightHandRing2
                                {
                                    OFFSET -0.299554 -0.105672 -0.154382
                                    CHANNELS 3 Zrotation Yrotation Xrotation
                                    JOINT RightHandRing3
                                    {
                                        OFFSET -0.112055 -0.044318 -0.063911
                                        CHANNELS 3 Zrotation Yrotation Xrotation
                                        End Site
                                        {
                                            OFFSET -0.096254 -0.045347 -0.055669
                                        }
                                    }
                                }
                            }
                            JOINT RightHandLittle1
                            {
                                OFFSET -0.689403 -0.053298 -0.308303
                                CHANNELS 3 Zrotation Yrotation Xrotation
                                JOINT RightHandLittle2
                                {
                                    OFFSET -0.137636 -0.049067 -0.129244
                                    CHANNELS 3 Zrotation Yrotation Xrotation
                                    JOINT RightHandLittle3
                                    {
                                        OFFSET -0.090508 -0.055058 -0.057206
                                        CHANNELS 3 Zrotation Yrotation Xrotation
                                        End Site
                                        {
                                            OFFSET -0.157384 -0.056802 -0.091062
                                        }
                                    }
                                }
                            }
                        }
                    }
                }
            }
        }
    }
    JOINT LeftHip
    {
        OFFSET 0.685143 0.673822 -0.044491
        CHANNELS 3 Zrotation Yrotation Xrotation
        JOINT LeftKnee
        {
            OFFSET 0.085364 -3.750208 0.017676
            CHANNELS 3 Zrotation Yrotation Xrotation
            JOINT LeftAnkle
            {
                OFFSET 0.094583 -4.155206 0.019585
                CHANNELS 3 Zrotation Yrotation Xrotation
                JOINT LeftToe
                {
                    OFFSET -0.000000 -0.395925 0.621478
                    CHANNELS 3 Zrotation Yrotation Xrotation
                    End Site
                    {
                        OFFSET -0.000000 -0.077878 0.321152
                    }
                }
            }
        }
    }
    JOINT RightHip
    {
        OFFSET -0.685143 0.673822 -0.044492
        CHANNELS 3 Zrotation Yrotation Xrotation
        JOINT RightKnee
        {
            OFFSET -0.085364 -3.750208 0.017677
            CHANNELS 3 Zrotation Yrotation Xrotation
            JOINT RightAnkle
            {
                OFFSET -0.094583 -4.155206 0.019585
                CHANNELS 3 Zrotation Yrotation Xrotation
                JOINT RightToe
                {
                    OFFSET -0.000000 -0.395925 0.621478
                    CHANNELS 3 Zrotation Yrotation Xrotation
                    End Site
                    {
                        OFFSET -0.000000 -0.077878 0.321152
                    }
                }
            }
        }
    }
}
MOTION
Frames: 6
Frame Time: 0.033333
-0.616351 8.214929 -0.178924 163.157425 -2.113170 -175.413239 -5.154853 0.421802 5.467850 0.004168 -0.065486 -3.645263 4.236351 -2.733373 10.641463 0.286942 -5.555812 22.559355 -7.554434 -0.112092 -0.009237 -9.431870 12.148756 76.171417 177.970825 -60.516808 -178.823486 56.644131 -26.382151 -29.547707 0.000005 0.000004 -0.000001 0.000003 0.000001 -0.000002 -0.000002 -0.000000 0.000003 -0.000002 0.000000 0.000004 0.000005 0.000001 0.000000 0.000000 -0.000000 -0.000001 0.000003 -0.000000 -0.000001 0.000000 -0.000001 -0.000000 0.000005 0.000001 0.000001 0.000005 0.000005 -0.000002 0.000003 -0.000002 0.000001 0.000002 -0.000002 -0.000002 0.000007 0.000007 0.000002 0.000003 -0.000000 0.000000 -0.000005 -0.000003 0.000002 11.239802 -1.008238 0.016531 26.405905 11.431447 106.152870 -11.307738 86.781158 -11.964149 -117.202385 -47.872993 -2.228139 0.000005 -0.000005 0.000002 0.000002 -0.000000 -0.000003 -0.000002 0.000003 0.000007 0.000001 -0.000002 0.000000 -0.000003 -0.000002 0.000000 0.000001 -0.000002 0.000004 0.000003 -0.000000 0.000000 -0.000002 -0.000000 0.000003 0.000002 -0.000000 -0.000002 0.000010 -0.000003 -0.000003 -0.000006 0.000002 0.000000 0.000001 0.000007 0.000003 0.000003 -0.000002 0.000001 0.000006 0.000002 -0.000003 -0.000008 -0.000002 0.000003 -22.981422 -1.778854 -24.062939 0.283437 0.811713 38.493900 3.584484 8.946588 -25.545496 -0.000000 -0.000002 0.000003 -14.835196 1.768631 -29.174631 -0.540713 -1.057307 54.172245 -2.497664 -10.781109 -35.428364 0.000000 -0.000001 0.000002
-0.616351 8.214929 -0.178916 163.157425 -2.113173 -175.413239 -5.153939 0.421934 5.465269 0.005073 -0.065566 -3.647897 4.237952 -2.733807 10.645990 0.287010 -5.557195 22.568172 -7.554266 -0.111979 -0.009257 -9.431466 12.149922 76.170570 177.970901 -60.515041 -178.823563 56.644855 -26.379116 -29.548792 0.000019 0.000011 -0.000013 0.000005 0.000002 0.000001 -0.000003 -0.000003 0.000008 0.000012 0.000003 -0.000004 0.000002 -0.000000 0.000001 -0.000002 -0.000001 -0.000001 0.000007 0.000005 -0.000004 0.000000 0.000002 0.000002 0.000000 -0.000000 -0.000001 0.000005 0.000006 -0.000001 0.000002 -0.000002 -0.000000 0.000002 -0.000000 0.000001 0.000010 0.000005 -0.000001 0.000000 0.000003 -0.000003 0.000000 -0.000006 -0.000001 11.239597 -1.008697 0.016557 26.406195 11.432024 106.157433 -11.314893 86.783035 -11.971271 -117.203247 -47.872574 -2.226963 0.000006 0.000005 -0.000007 0.000001 0.000003 -0.000006 0.000004 0.000003 0.000003 0.000010 0.000024 -0.000005 -0.000001 -0.000000 -0.000003 0.000000 0.000002 0.000002 0.000014 0.000012 0.000009 0.000003 -0.000000 -0.000001 -0.000005 -0.000003 0.000006 0.000019 0.000015 -0.000007 -0.000004 0.000007 -0.000005 0.000000 0.000002 0.000002 0.000029 0.000020 0.000001 -0.000002 -0.000005 0.000000 -0.000003 -0.000002 0.000002 -22.981216 -1.782175 -24.062813 0.283433 0.811708 38.493622 3.583563 8.949727 -25.545122 -0.000001 -0.000004 0.000002 -14.835190 1.768636 -29.174505 -0.540713 -1.057307 54.172230 -2.497587 -10.781128 -35.428459 -0.000001 0.000001 0.000004
-0.616349 8.214930 -0.178892 163.157425 -2.113173 -175.413239 -5.151188 0.422362 5.457643 0.007829 -0.065811 -3.655666 4.242678 -2.735098 10.659352 0.287227 -5.561333 22.594202 -7.553631 -0.111618 -0.009313 -9.430514 12.153375 76.167999 177.971115 -60.509869 -178.823807 56.646973 -26.370152 -29.552019 -0.000005 0.000004 -0.000010 0.000003 0.000003 -0.000000 -0.000002 -0.000000 -0.000003 -0.000003 -0.000000 0.000006 0.000000 0.000000 -0.000000 0.000002 0.000000 -0.000002 -0.000007 0.000001 0.000003 0.000002 0.000002 -0.000002 0.000007 0.000003 0.000002 -0.000014 0.000006 0.000003 -0.000002 0.000000 0.000000 0.000000 -0.000002 -0.000005 -0.000002 0.000009 0.000004 -0.000002 -0.000005 -0.000004 -0.000002 -0.000003 0.000000 11.238970 -1.010046 0.016643 26.407145 11.433699 106.170898 -11.335399 86.788460 -11.991902 -117.205803 -47.871357 -2.223528 -0.000002 -0.000000 -0.000009 -0.000001 -0.000002 -0.000004 0.000000 -0.000003 0.000005 -0.000008 0.000002 -0.000020 0.000002 -0.000002 -0.000003 -0.000003 -0.000002 0.000005 -0.000006 0.000005 -0.000017 -0.000002 -0.000003 -0.000003 -0.000001 0.000005 -0.000001 -0.000017 0.000005 -0.000015 0.000001 0.000002 -0.000001 0.000002 -0.000000 0.000001 -0.000019 -0.000000 -0.000019 -0.000000 -0.000005 -0.000000 -0.000003 0.000003 0.000003 -22.980597 -1.791996 -24.062466 0.283421 0.811694 38.492821 3.580831 8.959033 -25.544048 -0.000001 -0.000002 -0.000004 -14.835140 1.768636 -29.174084 -0.540712 -1.057306 54.172138 -2.497377 -10.781161 -35.428711 -0.000000 0.000001 0.000004
-0.616346 8.214930 -0.178853 163.157425 -2.113174 -175.413239 -5.146618 0.423068 5.445129 0.012370 -0.066212 -3.668419 4.250432 -2.737232 10.681203 0.287581 -5.568153 22.636740 -7.552668 -0.111047 -0.009404 -9.428941 12.159030 76.163727 177.971451 -60.501408 -178.824219 56.650436 -26.355421 -29.557302 0.000024 -0.000001 -0.000009 0.000002 0.000003 -0.000003 -0.000002 -0.000000 -0.000004 0.000014 -0.000008 -0.000003 0.000003 -0.000000 0.000000 0.000000 0.000001 -0.000002 0.000012 -0.000005 -0.000000 -0.000003 -0.000000 0.000000 0.000005 0.000001 -0.000004 0.000007 -0.000001 -0.000000 -0.000002 -0.000001 -0.000004 0.000002 -0.000006 -0.000002 0.000005 -0.000003 0.000002 -0.000003 -0.000003 -0.000002 0.000002 -0.000005 0.000003 11.237995 -1.012257 0.016786 26.408548 11.436479 106.193054 -11.370099 86.797600 -12.026661 -117.209953 -47.869373 -2.217917 0.000001 0.000007 -0.000005 -0.000002 -0.000000 -0.000003 0.000003 -0.000000 0.000001 0.000003 0.000009 -0.000002 -0.000003 -0.000005 -0.000003 0.000002 -0.000002 0.000000 0.000003 0.000005 0.000000 0.000003 0.000003 0.000005 -0.000006 0.000002 -0.000007 0.000008 0.000003 -0.000001 -0.000003 0.000009 -0.000001 -0.000001 -0.000000 0.000001 0.000006 0.000010 0.000000 0.000001 -0.000002 -0.000006 -0.000003 0.000003 0.000005 -22.979582 -1.808114 -24.061892 0.283403 0.811670 38.491505 3.576354 8.974305 -25.542278 0.000000 0.000002 0.000003 -14.835064 1.768642 -29.173429 -0.540710 -1.057306 54.172050 -2.497019 -10.781221 -35.429176 -0.000001 -0.000001 0.000001
-0.616342 8.214931 -0.178798 163.157425 -2.113173 -175.413239 -5.140237 0.424055 5.427896 0.018714 -0.066773 -3.685997 4.261095 -2.740195 10.711199 0.288073 -5.577621 22.695129 -7.551334 -0.110253 -0.009530 -9.426839 12.166810 76.157738 177.971939 -60.489788 -178.824783 56.655155 -26.335110 -29.564573 0.000003 -0.000000 -0.000001 0.000002 0.000005 0.000000 -0.000002 -0.000003 0.000001 -0.000002 0.000003 0.000011 0.000002 0.000001 -0.000000 0.000000 -0.000001 0.000002 -0.000005 0.000006 0.000012 -0.000005 -0.000001 0.000002 0.000002 -0.000000 0.000002 -0.000012 0.000005 0.000007 0.000003 0.000005 0.000002 0.000003 -0.000005 -0.000001 -0.000005 0.000008 0.000015 0.000002 -0.000003 -0.000003 0.000002 -0.000003 -0.000003 11.236618 -1.015301 0.016989 26.410530 11.440311 106.223640 -11.418486 86.810211 -12.074957 -117.215668 -47.866631 -2.210202 -0.000003 0.000002 -0.000007 -0.000002 0.000002 0.000000 0.000000 0.000002 0.000003 0.000000 0.000005 0.000003 -0.000001 -0.000000 -0.000001 0.000000 -0.000003 0.000003 0.000004 0.000007 0.000015 -0.000001 -0.000002 0.000002 -0.000004 -0.000002 0.000000 0.000020 0.000003 0.000008 -0.000005 0.000005 -0.000003 0.000002 -0.000002 0.000002 0.000011 0.000015 -0.000001 0.000002 0.000002 0.000001 -0.000004 -0.000009 0.000002 -22.978176 -1.830325 -24.061094 0.283377 0.811637 38.489655 3.570192 8.995351 -25.539820 -0.000000 -0.000002 -0.000000 -14.834952 1.768653 -29.172472 -0.540706 -1.057303 54.171856 -2.496528 -10.781308 -35.429779 -0.000000 -0.000000 0.000005
-0.616336 8.214931 -0.178729 163.157425 -2.113173 -175.413239 -5.132060 0.425319 5.406105 0.026842 -0.067482 -3.708215 4.274541 -2.743988 10.748990 0.288705 -5.589708 22.768654 -7.549656 -0.109256 -0.009694 -9.424170 12.176653 76.150032 177.972565 -60.474976 -178.825485 56.661083 -26.309393 -29.573767 -0.000005 0.000005 0.000006 -0.000002 0.000005 0.000002 -0.000003 0.000004 0.000008 -0.000007 -0.000001 0.000011 -0.000002 -0.000000 0.000002 0.000002 0.000002 0.000002 -0.000010 0.000004 0.000016 0.000000 0.000001 -0.000002 0.000000 0.000001 -0.000002 -0.000020 0.000003 0.000010 0.000002 -0.000000 0.000001 0.000000 -0.000001 -0.000001 -0.000026 0.000009 0.000021 0.000002 0.000000 -0.000001 0.000005 -0.000002 0.000001 11.234817 -1.019150 0.017243 26.413019 11.445209 106.262451 -11.480393 86.826271 -12.137136 -117.222878 -47.863182 -2.200501 -0.000007 0.000003 -0.000003 0.000002 -0.000002 0.000001 -0.000002 -0.000000 0.000002 0.000003 0.000012 0.000003 0.000000 -0.000003 -0.000005 -0.000003 0.000003 -0.000000 0.000001 0.000003 0.000004 -0.000002 -0.000000 0.000003 -0.000001 -0.000000 0.000002 -0.000017 0.000012 -0.000008 0.000001 0.000002 -0.000000 0.000000 -0.000000 0.000002 0.000000 0.000003 0.000000 -0.000002 -0.000002 0.000000 -0.000001 -0.000000 0.000003 -22.976402 -1.858430 -24.059994 0.283340 0.811592 38.487141 3.562417 9.021977 -25.536627 -0.000000 -0.000003 0.000002 -14.834812 1.768665 -29.171288 -0.540703 -1.057300 54.171669 -2.495894 -10.781415 -35.430584 -0.000001 -0.000001 0.000000
